# xmcd CD database file
#
# Track frame offsets:
#	150
#	19428
#	38916
#	73918
#	96366
#	141564
#	155893
#	169505
#	206713
#	242064
#
# Disc length: 3506 seconds
#
# Revision: 0
# Processed by: cddbd v1.5.2PL0 Copyright (c) Steve Scherf et al.
# Submitted via: CDex 1.51
#
DISCID=9a0db00a
DTITLE=Stevie Ray Vaughan - Ripley's Music Hall
DYEAR=1983
DGENRE=Blues
TTITLE0=Testify
TTITLE1=So Excited
TTITLE2=Voodoo Child (Slight Return)
TTITLE3=Prind And Joy
TTITLE4=Texas Flood
TTITLE5=Love Struck Baby
TTITLE6=Mary Had A Little Lamb
TTITLE7=Tin Pan Alley
TTITLE8=Little Wing
TTITLE9=Third Stone From The Sun
EXTD=YEAR: 1983
EXTT0=
EXTT1=
EXTT2=
EXTT3=
EXTT4=
EXTT5=
EXTT6=
EXTT7=
EXTT8=
EXTT9=
PLAYORDER=
